<?xml version="1.0" encoding="utf-8"?>
<!-- Generator: Adobe Illustrator 27.5.0, SVG Export Plug-In . SVG Version: 6.00 Build 0)  -->
<svg version="1.1" xmlns="http://www.w3.org/2000/svg" xmlns:xlink="http://www.w3.org/1999/xlink" x="0px" y="0px"
	 viewBox="0 0 500 500" style="enable-background:new 0 0 500 500;" xml:space="preserve">
<g id="BACKGROUND">
	<rect style="fill:#F9FAFE;" width="500" height="500"/>
</g>
<g id="OBJECTS">
	<g>
		<g>
			<path style="fill:#F6B381;" d="M86.101,398.5l6.429-49.721c0.685-5.298,3.46-10.103,7.707-13.344l31.364-23.935l17,54l-39,43.5
				L86.101,398.5z"/>
			<path style="fill:#F6906B;" d="M119.453,337.764l-10.608,8.713c-0.759,0.624-1.088,1.631-0.844,2.582l7.825,30.475
				c0.521,2.03,3.145,2.581,4.438,0.932l15.701-20.019c0.677-0.863,0.72-2.064,0.107-2.973l-12.919-19.169
				C122.321,337.069,120.605,336.818,119.453,337.764z"/>
		</g>
		<g>
			<path style="fill:#F6B381;" d="M413.899,398.5l-6.429-49.721c-0.685-5.298-3.46-10.103-7.707-13.344L368.399,311.5l-17,54
				l39,43.5L413.899,398.5z"/>
			<path style="fill:#F6906B;" d="M380.547,337.764l10.607,8.713c0.759,0.624,1.088,1.631,0.844,2.582l-7.825,30.475
				c-0.521,2.03-3.145,2.581-4.438,0.932l-15.701-20.019c-0.677-0.863-0.72-2.064-0.107-2.973l12.918-19.169
				C377.679,337.069,379.395,336.818,380.547,337.764z"/>
		</g>
		<g>
			<g>
				<path style="fill:#E4863D;" d="M254.924,76.304h-4.051c-4.251,0-7.697-3.446-7.697-7.697c0-4.251,3.446-7.697,7.697-7.697h4.051
					c4.251,0,7.697,3.446,7.697,7.697C262.621,72.859,259.175,76.304,254.924,76.304z M257.239,52.115h-8.681
					c-9.109,0-16.493,7.384-16.493,16.493c0,9.109,7.384,16.493,16.493,16.493h8.681c9.109,0,16.493-7.384,16.493-16.493
					C273.732,59.499,266.348,52.115,257.239,52.115z"/>
				<path style="fill:#6E1C0C;" d="M373.232,423.149H132.566c-5.615,0-10.167-4.552-10.167-10.167V89.316
					c0-5.615,4.552-10.167,10.167-10.167h240.667c5.615,0,10.167,4.552,10.167,10.167v323.667
					C383.399,418.598,378.847,423.149,373.232,423.149z"/>
				<path style="fill:#DF784F;" d="M373.326,416.816H132.472c-5.563,0-10.073-4.51-10.073-10.073V89.222
					c0-5.563,4.51-10.073,10.073-10.073h240.855c5.563,0,10.073,4.51,10.073,10.073v317.521
					C383.399,412.306,378.889,416.816,373.326,416.816z"/>
				<rect x="146.399" y="100.782" style="fill:#F3EEDD;" width="213" height="295.452"/>
				<path style="fill:#C96440;" d="M359.399,396.233h-213v5.416h209.917c1.703,0,3.083-1.38,3.083-3.083V396.233z"/>
				<rect x="146.399" y="100.782" style="fill:#FFFFFF;" width="213" height="292.701"/>
				<path style="fill:#F6A737;" d="M258.107,48.816h-10.417c-10.931,0-19.792,8.861-19.792,19.792
					c0,10.931,8.861,19.792,19.792,19.792h10.417c10.931,0,19.792-8.861,19.792-19.792
					C277.899,57.677,269.038,48.816,258.107,48.816z M255.33,77.844h-4.861c-5.101,0-9.236-4.135-9.236-9.236
					c0-5.101,4.135-9.236,9.236-9.236h4.861c5.101,0,9.236,4.135,9.236,9.236C264.566,73.709,260.431,77.844,255.33,77.844z"/>
				<g>
					<rect x="174.649" y="100.774" style="fill:#DDD9D1;" width="156.5" height="11.875"/>
					<path style="fill:#6E1C0C;" d="M331.149,100.524h-156.5V88.899c0-2.347,1.903-4.25,4.25-4.25h148c2.347,0,4.25,1.903,4.25,4.25
						V100.524z"/>
					<path style="fill:#FFCB5A;" d="M325.149,107.149h-144.5v-27.75c0-5.385,4.365-9.75,9.75-9.75h125c5.385,0,9.75,4.365,9.75,9.75
						V107.149z"/>
					<rect x="180.649" y="95.649" style="fill:#F6A737;" width="144.5" height="11.5"/>
					<path style="fill:#FFE1A1;" d="M230.649,101.399L230.649,101.399c0,3.176,2.574,5.75,5.75,5.75h33
						c3.176,0,5.75-2.574,5.75-5.75v0c0-3.176-2.574-5.75-5.75-5.75h-33C233.223,95.649,230.649,98.224,230.649,101.399z"/>
					<path style="fill:#E4863D;" d="M289.649,101.399L289.649,101.399c0,3.176,2.574,5.75,5.75,5.75h11.375
						c3.176,0,5.75-2.574,5.75-5.75v0c0-3.176-2.574-5.75-5.75-5.75h-11.375C292.223,95.649,289.649,98.224,289.649,101.399z"/>
					<path style="fill:#FFE1A1;" d="M236.524,76.899h-33.25c-2.002,0-3.625-1.623-3.625-3.625l0,0c0-2.002,1.623-3.625,3.625-3.625
						h33.25c2.002,0,3.625,1.623,3.625,3.625l0,0C240.149,75.276,238.526,76.899,236.524,76.899z"/>
				</g>
				<path style="fill:#A84C2A;" d="M291.464,423.149h-45.148c-1.749,0-3.167-1.418-3.167-3.167l0,0c0-1.749,1.418-3.167,3.167-3.167
					h45.148c1.749,0,3.167,1.418,3.167,3.167l0,0C294.631,421.732,293.213,423.149,291.464,423.149z"/>
				<path style="fill:#B74C01;" d="M174.482,423.149h-24.699c-1.749,0-3.167-1.418-3.167-3.167l0,0c0-1.749,1.418-3.167,3.167-3.167
					h24.699c1.749,0,3.167,1.418,3.167,3.167l0,0C177.649,421.732,176.231,423.149,174.482,423.149z"/>
				<path style="fill:#FFCB5A;" d="M256.045,55.024h-5.25c-1.714,0-3.104-1.39-3.104-3.104l0,0c0-1.714,1.39-3.104,3.104-3.104h5.25
					c1.714,0,3.104,1.39,3.104,3.104l0,0C259.149,53.635,257.759,55.024,256.045,55.024z"/>
			</g>
			
				<text transform="matrix(1 0 0 1 166.2328 149)" style="fill:#4F577F; font-family:'AlfaSlabOne-Regular'; font-size:18.2087px; letter-spacing:1;">REGISTRATION</text>
			<path style="fill:#ACAAB1;" d="M262.908,172.481h-92.685c-2.204,0-3.991-1.787-3.991-3.991l0,0c0-2.204,1.787-3.991,3.991-3.991
				h92.685c2.204,0,3.991,1.787,3.991,3.991l0,0C266.899,170.695,265.112,172.481,262.908,172.481z"/>
			<path style="fill:#D4D6D9;" d="M334.908,172.481h-56.102c-2.204,0-3.991-1.787-3.991-3.991l0,0c0-2.204,1.787-3.991,3.991-3.991
				h56.102c2.204,0,3.991,1.787,3.991,3.991l0,0C338.899,170.695,337.112,172.481,334.908,172.481z"/>
			<path style="fill:#ACAAB1;" d="M276.408,189.907H170.223c-2.204,0-3.991-1.787-3.991-3.991l0,0c0-2.204,1.787-3.991,3.991-3.991
				h106.185c2.204,0,3.991,1.787,3.991,3.991l0,0C280.399,188.121,278.612,189.907,276.408,189.907z"/>
			<path style="fill:#ACAAB1;" d="M334.908,189.907H293.64c-2.204,0-3.991-1.787-3.991-3.991l0,0c0-2.204,1.787-3.991,3.991-3.991
				h41.269c2.204,0,3.991,1.787,3.991,3.991l0,0C338.899,188.121,337.112,189.907,334.908,189.907z"/>
			<path style="fill:#D4D6D9;" d="M262.908,207.333h-92.685c-2.204,0-3.991-1.787-3.991-3.991l0,0c0-2.204,1.787-3.99,3.991-3.99
				h92.685c2.204,0,3.991,1.787,3.991,3.99l0,0C266.899,205.547,265.112,207.333,262.908,207.333z"/>
			<path style="fill:#ACAAB1;" d="M334.908,207.333h-56.102c-2.204,0-3.991-1.787-3.991-3.991l0,0c0-2.204,1.787-3.99,3.991-3.99
				h56.102c2.204,0,3.991,1.787,3.991,3.99l0,0C338.899,205.547,337.112,207.333,334.908,207.333z"/>
			<g>
				<g>
					<path style="fill:#4F577F;" d="M288.033,240.23h-87.234c-1.785,0-3.233-1.447-3.233-3.233l0,0c0-1.785,1.447-3.233,3.233-3.233
						h87.234c1.785,0,3.233,1.447,3.233,3.233l0,0C291.266,238.783,289.818,240.23,288.033,240.23z"/>
					<path style="fill:#5E99B1;" d="M235.533,230.101h-36.35c-0.893,0-1.616-0.724-1.616-1.616l0,0c0-0.893,0.724-1.616,1.616-1.616
						h36.35c0.893,0,1.616,0.724,1.616,1.616l0,0C237.149,229.377,236.425,230.101,235.533,230.101z"/>
					<path style="fill:#ACAAB1;" d="M335.666,252.282H200.799c-1.785,0-3.233-1.447-3.233-3.233l0,0
						c0-1.785,1.447-3.233,3.233-3.233h134.867c1.785,0,3.233,1.447,3.233,3.233l0,0
						C338.899,250.834,337.452,252.282,335.666,252.282z"/>
					<path style="fill:#ACAAB1;" d="M335.666,264.333H169.465c-1.785,0-3.233-1.447-3.233-3.233l0,0
						c0-1.785,1.447-3.233,3.233-3.233h166.201c1.785,0,3.233,1.447,3.233,3.233l0,0
						C338.899,262.886,337.452,264.333,335.666,264.333z"/>
					<path style="fill:#D4D6D9;" d="M187.965,252.465h-17.868c-2.135,0-3.865-1.73-3.865-3.865v-17.868
						c0-2.135,1.73-3.865,3.865-3.865h17.868c2.135,0,3.865,1.73,3.865,3.865V248.6C191.83,250.735,190.1,252.465,187.965,252.465z"
						/>
				</g>
				<path style="fill:#3B9674;" d="M176.575,247.221c-0.053,0-0.107-0.002-0.16-0.005c-0.699-0.045-1.348-0.381-1.787-0.927
					l-3.538-4.391c-0.866-1.075-0.697-2.649,0.378-3.515c1.075-0.866,2.649-0.697,3.515,0.378l1.827,2.268l6.483-6.221
					c0.995-0.956,2.579-0.923,3.535,0.073c0.956,0.996,0.923,2.579-0.073,3.535l-8.45,8.109
					C177.839,246.973,177.218,247.221,176.575,247.221z"/>
			</g>
			<g>
				<g>
					<path style="fill:#4F577F;" d="M312.658,294.897H200.799c-1.785,0-3.233-1.447-3.233-3.233l0,0
						c0-1.785,1.447-3.233,3.233-3.233h111.859c1.785,0,3.233,1.447,3.233,3.233l0,0
						C315.891,293.449,314.443,294.897,312.658,294.897z"/>
					<path style="fill:#5E99B1;" d="M235.533,284.767h-36.35c-0.893,0-1.616-0.724-1.616-1.616l0,0c0-0.893,0.724-1.616,1.616-1.616
						h36.35c0.893,0,1.616,0.724,1.616,1.616l0,0C237.149,284.044,236.425,284.767,235.533,284.767z"/>
					<path style="fill:#ACAAB1;" d="M335.666,306.948H200.799c-1.785,0-3.233-1.447-3.233-3.233v0c0-1.785,1.447-3.233,3.233-3.233
						h134.867c1.785,0,3.233,1.447,3.233,3.233v0C338.899,305.501,337.452,306.948,335.666,306.948z"/>
					<path style="fill:#ACAAB1;" d="M335.666,319H169.465c-1.785,0-3.233-1.447-3.233-3.233l0,0c0-1.785,1.447-3.233,3.233-3.233
						h166.201c1.785,0,3.233,1.447,3.233,3.233l0,0C338.899,317.553,337.452,319,335.666,319z"/>
					<path style="fill:#D4D6D9;" d="M187.965,307.132h-17.868c-2.135,0-3.865-1.73-3.865-3.865V285.4
						c0-2.135,1.73-3.865,3.865-3.865h17.868c2.135,0,3.865,1.73,3.865,3.865v17.867C191.83,305.402,190.1,307.132,187.965,307.132z
						"/>
				</g>
				<path style="fill:#3B9674;" d="M176.575,300.888c-0.053,0-0.107-0.001-0.16-0.005c-0.699-0.045-1.348-0.381-1.787-0.927
					l-3.538-4.391c-0.866-1.075-0.697-2.649,0.378-3.515c1.075-0.866,2.649-0.697,3.515,0.379l1.827,2.268l6.483-6.221
					c0.995-0.956,2.579-0.923,3.535,0.073c0.956,0.996,0.923,2.579-0.073,3.535l-8.45,8.109
					C177.839,300.64,177.218,300.888,176.575,300.888z"/>
			</g>
			<g>
				<g>
					<path style="fill:#4F577F;" d="M263.666,349.563h-62.867c-1.785,0-3.233-1.447-3.233-3.233l0,0
						c0-1.785,1.447-3.233,3.233-3.233h62.867c1.785,0,3.233,1.447,3.233,3.233l0,0
						C266.899,348.116,265.452,349.563,263.666,349.563z"/>
					<path style="fill:#5E99B1;" d="M235.533,339.434h-36.35c-0.893,0-1.616-0.724-1.616-1.616l0,0c0-0.893,0.724-1.616,1.616-1.616
						h36.35c0.893,0,1.616,0.724,1.616,1.616l0,0C237.149,338.71,236.425,339.434,235.533,339.434z"/>
					<path style="fill:#ACAAB1;" d="M335.666,361.615H200.799c-1.785,0-3.233-1.447-3.233-3.233l0,0
						c0-1.785,1.447-3.233,3.233-3.233h134.867c1.785,0,3.233,1.447,3.233,3.233l0,0
						C338.899,360.168,337.452,361.615,335.666,361.615z"/>
					<path style="fill:#ACAAB1;" d="M335.666,373.667H169.465c-1.785,0-3.233-1.447-3.233-3.233l0,0
						c0-1.785,1.447-3.233,3.233-3.233h166.201c1.785,0,3.233,1.447,3.233,3.233l0,0
						C338.899,372.219,337.452,373.667,335.666,373.667z"/>
					<path style="fill:#D4D6D9;" d="M187.965,361.799h-17.868c-2.135,0-3.865-1.73-3.865-3.865v-17.867
						c0-2.135,1.73-3.865,3.865-3.865h17.868c2.135,0,3.865,1.73,3.865,3.865v17.867C191.83,360.068,190.1,361.799,187.965,361.799z
						"/>
				</g>
				<path style="fill:#3B9674;" d="M176.575,354.555c-0.053,0-0.107-0.001-0.16-0.005c-0.699-0.045-1.348-0.381-1.787-0.927
					l-3.538-4.391c-0.866-1.075-0.697-2.649,0.378-3.515c1.075-0.866,2.649-0.697,3.515,0.378l1.827,2.268l6.483-6.221
					c0.995-0.957,2.579-0.923,3.535,0.073c0.956,0.996,0.923,2.579-0.073,3.535l-8.45,8.109
					C177.839,354.306,177.218,354.555,176.575,354.555z"/>
			</g>
		</g>
		<g>
			<g>
				<path style="fill:#F6B381;" d="M378.696,429.341l-3.825-12.112c-0.188-0.594-0.632-1.072-1.21-1.304l-14.352-5.741
					c-13.18-5.272-12.705-25.908-12.329-31.447c0.057-0.844-0.403-1.628-1.163-1.998l-18.04-8.789
					c-5.924-2.886-8.682-9.804-6.368-15.974v0c1.546-4.122,6.118-6.235,10.259-4.742l38.391,13.846
					c0.452,0.163,0.834,0.478,1.08,0.891l20.137,33.802c0.499,0.837,1.513,1.216,2.438,0.909l17.002-5.628
					c1.168-0.387,2.414,0.321,2.681,1.522l7.938,35.686c0.289,1.298-0.699,2.529-2.028,2.529h-38.63
					C379.771,430.793,378.969,430.205,378.696,429.341z"/>
				<path style="fill:#F6906B;" d="M384.399,407.833l-6.5-1c-28-5-21-34-21-34l-36.805-16.147
					c-0.328,4.276,1.952,8.471,5.984,10.436l21.018,10.24c0,0-3.053,26.715,12.213,32.822c15.266,6.106,15.266,6.106,15.266,6.106
					l4.58,14.503h10.695L384.399,407.833z"/>
				<path style="fill:#E3E3E6;" d="M324.062,355.65l1.461-2.84c0.742-1.442,2.44-2.109,3.965-1.557l7.284,2.637
					c1.824,0.661,2.656,2.771,1.773,4.499l-2.092,4.094c-0.843,1.65-2.9,2.251-4.499,1.316l-6.652-3.891
					C323.823,359.043,323.278,357.173,324.062,355.65z"/>
			</g>
			<g>
				<path style="fill:#F1E8E1;" d="M423.309,435.945l-46.911,7.459c-2.591,0.412-5.025-1.354-5.437-3.945l-1.099-6.913
					c-0.412-2.591,1.354-5.025,3.945-5.437l46.911-7.459c2.591-0.412,5.025,1.354,5.437,3.945l1.099,6.913
					C427.666,433.099,425.9,435.534,423.309,435.945z"/>
				<path style="fill:#DDD3D2;" d="M399.854,439.675l-22.55,3.586c-3.091,0.491-5.995-1.616-6.486-4.707l-0.811-5.103
					c-0.491-3.091,1.616-5.995,4.707-6.486l22.55-3.586c3.091-0.491,5.995,1.616,6.486,4.707l0.811,5.103
					C405.052,436.279,402.944,439.183,399.854,439.675z"/>
				<polygon style="fill:#4F577F;" points="441.937,500 431.001,429.66 366.149,439.971 375.482,500 				"/>
				<path style="fill:#393C63;" d="M415.13,500l-8.469-54.657c-1.012-6.363-6.99-10.702-13.354-9.69l-27.159,4.318L375.482,500
					H415.13z"/>
			</g>
		</g>
		<g>
			<g>
				<path style="fill:#F6B381;" d="M121.304,429.341l3.825-12.112c0.188-0.594,0.632-1.072,1.21-1.304l14.352-5.741
					c13.18-5.272,12.705-25.908,12.329-31.447c-0.057-0.844,0.403-1.628,1.163-1.998l18.04-8.789
					c5.924-2.886,8.682-9.804,6.368-15.974v0c-1.546-4.122-6.118-6.235-10.259-4.742l-38.391,13.846
					c-0.452,0.163-0.834,0.478-1.08,0.891l-20.137,33.802c-0.499,0.837-1.513,1.216-2.438,0.909l-17.002-5.628
					c-1.168-0.387-2.414,0.321-2.681,1.522l-7.938,35.686c-0.289,1.298,0.699,2.529,2.028,2.529h38.63
					C120.229,430.793,121.031,430.205,121.304,429.341z"/>
				<path style="fill:#F6906B;" d="M115.601,407.833l6.5-1c28-5,21-34,21-34l36.805-16.147c0.328,4.276-1.952,8.471-5.984,10.436
					l-21.019,10.24c0,0,3.053,26.715-12.213,32.822c-15.266,6.106-15.266,6.106-15.266,6.106l-4.58,14.503H110.15L115.601,407.833z"
					/>
				<path style="fill:#E3E3E6;" d="M175.938,355.65l-1.461-2.84c-0.742-1.442-2.44-2.109-3.965-1.557l-7.284,2.637
					c-1.824,0.661-2.656,2.771-1.773,4.499l2.092,4.094c0.843,1.65,2.9,2.251,4.499,1.316l6.652-3.891
					C176.177,359.043,176.722,357.173,175.938,355.65z"/>
			</g>
			<g>
				<path style="fill:#F1E8E1;" d="M76.691,435.945l46.911,7.459c2.591,0.412,5.025-1.354,5.437-3.945l1.099-6.913
					c0.412-2.591-1.354-5.025-3.945-5.437l-46.911-7.459c-2.591-0.412-5.025,1.354-5.437,3.945l-1.099,6.913
					C72.334,433.099,74.1,435.534,76.691,435.945z"/>
				<path style="fill:#DDD3D2;" d="M100.146,439.675l22.55,3.586c3.091,0.491,5.995-1.616,6.486-4.707l0.811-5.103
					c0.491-3.091-1.616-5.995-4.707-6.486l-22.55-3.586c-3.091-0.491-5.995,1.616-6.486,4.707l-0.811,5.103
					C94.948,436.279,97.056,439.183,100.146,439.675z"/>
				<polygon style="fill:#4F577F;" points="58.063,500 68.999,429.66 133.851,439.971 124.518,500 				"/>
				<path style="fill:#393C63;" d="M84.87,500l8.468-54.657c1.012-6.363,6.991-10.702,13.354-9.69l27.159,4.318L124.518,500H84.87z"
					/>
			</g>
		</g>
	</g>
</g>
<g id="DESIGNED_BY_FREEPIK">
	<g>
		<g id="XMLID_319_">
			<g id="XMLID_338_">
				<path id="XMLID_346_" d="M261.442,464.892c-0.49,0.502-0.91,1.054-1.255,1.646l-0.527-0.273
					c-0.076-0.337-0.396-0.569-0.746-0.528c-0.375,0.044-0.643,0.384-0.599,0.759c0.044,0.375,0.384,0.643,0.758,0.599
					c0.074-0.009,0.144-0.029,0.208-0.059l0.511,0.265c-0.284,0.627-0.49,1.289-0.611,1.975l0.845,0.149
					c0.26-1.479,0.962-2.839,2.029-3.932L261.442,464.892z"/>
				<path id="XMLID_345_" d="M267.656,462.285c-0.194,0-0.386,0.007-0.577,0.019l-0.083-0.709c0.212-0.169,0.335-0.44,0.301-0.73
					c-0.052-0.445-0.456-0.763-0.901-0.711c-0.445,0.052-0.764,0.455-0.711,0.901c0.034,0.288,0.214,0.522,0.458,0.638l0.083,0.707
					c-0.808,0.132-1.589,0.376-2.332,0.732l0.37,0.774c1.058-0.506,2.199-0.762,3.392-0.762c0.562,0,1.124,0.06,1.67,0.178
					l0.182-0.839C268.902,462.352,268.279,462.285,267.656,462.285z"/>
				<path id="XMLID_344_" d="M275.133,465.17c0.375-0.046,0.641-0.387,0.595-0.761c-0.046-0.375-0.387-0.641-0.761-0.595
					c-0.35,0.043-0.606,0.344-0.6,0.689l-0.471,0.411c-0.473-0.487-1.007-0.92-1.594-1.29l-0.457,0.726
					c1.284,0.809,2.288,1.955,2.903,3.313l0.782-0.354c-0.284-0.627-0.643-1.214-1.067-1.75l0.456-0.397
					C274.986,465.175,275.059,465.179,275.133,465.17z"/>
				<path id="XMLID_343_" d="M267.036,473.845c-0.437,0.026-0.878,0.039-1.31,0.039c-0.997,0-1.962-0.069-2.806-0.203
					c-0.442-0.07-0.958-0.176-1.439-0.331c1.185,2.107,3.476,3.539,6.102,3.539c3.234,0,5.959-2.17,6.737-5.1
					c-0.772,0.509-1.705,0.935-2.784,1.271C270.2,473.478,268.643,473.749,267.036,473.845z"/>
				<path id="XMLID_339_" d="M267.656,464.002c-3.796,0-6.885,3.019-6.885,6.73c0,0.482,0.052,0.962,0.155,1.428
					c0.762,0.547,3.064,1.008,6.055,0.828c3.261-0.196,5.998-1.084,7.556-2.444c-0.006-0.221-0.023-0.442-0.051-0.659
					C274.056,466.531,271.12,464.002,267.656,464.002z M265.211,471.38c-1.155,0-2.095-0.94-2.095-2.095
					c0-1.155,0.94-2.095,2.095-2.095c1.155,0,2.095,0.94,2.095,2.095C267.305,470.44,266.366,471.38,265.211,471.38z
					 M270.576,470.351c-0.849,0-1.54-0.691-1.54-1.54c0-0.849,0.691-1.541,1.54-1.541c0.849,0,1.541,0.691,1.541,1.541
					C272.116,469.66,271.425,470.351,270.576,470.351z"/>
			</g>
			<path id="XMLID_336_" d="M285.778,466.116c-0.334-0.131-0.912-0.35-1.565-0.269c-0.624,0.078-0.956,0.386-0.956,1.14v0.981h2.523
				v1.945h-2.523v6.177h-2.187v-6.177h-1.517v-1.945h1.517v-1.006c0-1.902,1.014-3.151,2.908-3.151c0.728,0,1.31,0.138,1.8,0.349
				L285.778,466.116z"/>
			<path id="XMLID_334_" d="M291.104,469.89c-0.2-0.034-0.405-0.052-0.596-0.052c-1.014,0-1.71,0.62-1.71,1.827v4.425h-2.188v-8.122
				h2.12v0.888c0.511-0.763,1.291-1.106,2.288-1.106c0.469,0,0.96,0.144,1.239,0.381L291.104,469.89z"/>
			<path id="XMLID_331_" d="M299.786,472.017c0,0.251-0.017,0.553-0.042,0.738h-5.758c0.235,1.173,1.056,1.685,2.087,1.685
				c0.704,0,1.467-0.285,2.053-0.779l1.282,1.408c-0.922,0.846-2.095,1.232-3.461,1.232c-2.489,0-4.216-1.693-4.216-4.249
				c0-2.556,1.676-4.3,4.107-4.3C298.177,467.75,299.778,469.485,299.786,472.017z M293.994,471.262h3.596
				c-0.201-1.039-0.83-1.626-1.768-1.626C294.791,469.636,294.187,470.257,293.994,471.262z"/>
			<path id="XMLID_328_" d="M308.453,472.017c0,0.251-0.017,0.553-0.042,0.738h-5.758c0.235,1.173,1.056,1.685,2.087,1.685
				c0.704,0,1.467-0.285,2.053-0.779l1.282,1.408c-0.922,0.846-2.095,1.232-3.461,1.232c-2.489,0-4.216-1.693-4.216-4.249
				c0-2.556,1.676-4.3,4.107-4.3C306.843,467.75,308.444,469.485,308.453,472.017z M302.661,471.262h3.596
				c-0.201-1.039-0.83-1.626-1.768-1.626C303.457,469.636,302.854,470.257,302.661,471.262z"/>
			<path id="XMLID_325_" d="M317.903,472.025c0,2.439-1.693,4.275-3.931,4.275c-1.09,0-1.861-0.428-2.389-1.056v4.199h-2.179
				v-11.474h2.137v0.897c0.528-0.662,1.307-1.115,2.422-1.115C316.21,467.75,317.903,469.586,317.903,472.025z M311.475,472.025
				c0,1.282,0.846,2.238,2.087,2.238c1.291,0,2.095-0.997,2.095-2.238c0-1.24-0.805-2.238-2.095-2.238
				C312.321,469.787,311.475,470.742,311.475,472.025z"/>
			<path id="XMLID_322_" d="M321.418,465.311c0,0.788-0.612,1.391-1.4,1.391c-0.788,0-1.391-0.603-1.391-1.391
				c0-0.788,0.604-1.408,1.391-1.408C320.806,463.903,321.418,464.524,321.418,465.311z M321.124,476.09h-2.188v-8.122h2.188V476.09
				z"/>
			<path id="XMLID_320_" d="M324.775,470.86l3.059-2.892h2.682l-3.939,3.822l3.964,4.3h-2.69l-3.076-3.285v3.285h-2.188v-12.069
				h2.188V470.86z"/>
		</g>
		<g>
			<path d="M175.729,476.016v-1.194c-0.597,0.813-1.576,1.393-2.704,1.393c-2.09,0-3.566-1.592-3.566-4.196
				c0-2.555,1.46-4.213,3.566-4.213c1.078,0,2.057,0.531,2.704,1.41v-4.263h1.244v11.064H175.729z M175.729,473.843v-3.633
				c-0.448-0.697-1.41-1.294-2.405-1.294c-1.609,0-2.571,1.327-2.571,3.102c0,1.775,0.962,3.085,2.571,3.085
				C174.319,475.104,175.281,474.54,175.729,473.843z"/>
			<path d="M178.582,472.002c0-2.322,1.659-4.197,3.948-4.197c2.422,0,3.848,1.891,3.848,4.296v0.316h-6.486
				c0.1,1.509,1.161,2.77,2.886,2.77c0.912,0,1.841-0.365,2.471-1.012l0.597,0.813c-0.796,0.796-1.874,1.227-3.185,1.227
				C180.29,476.215,178.582,474.507,178.582,472.002z M182.513,468.834c-1.709,0-2.555,1.443-2.621,2.67h5.258
				C185.134,470.31,184.337,468.834,182.513,468.834z"/>
			<path d="M187.273,474.955l0.647-0.895c0.531,0.614,1.543,1.145,2.637,1.145c1.228,0,1.891-0.581,1.891-1.377
				c0-1.94-4.96-0.746-4.96-3.716c0-1.244,1.078-2.306,2.985-2.306c1.36,0,2.323,0.514,2.969,1.161l-0.581,0.863
				c-0.481-0.581-1.36-1.012-2.389-1.012c-1.095,0-1.775,0.547-1.775,1.261c0,1.758,4.96,0.597,4.96,3.716
				c0,1.344-1.078,2.422-3.151,2.422C189.197,476.215,188.086,475.817,187.273,474.955z"/>
			<path d="M195.053,466.031c0-0.464,0.382-0.846,0.829-0.846c0.465,0,0.846,0.381,0.846,0.846c0,0.465-0.381,0.829-0.846,0.829
				C195.434,466.86,195.053,466.495,195.053,466.031z M195.268,476.016v-8.012h1.244v8.012H195.268z"/>
			<path d="M198.569,478.073l0.63-0.929c0.663,0.796,1.46,1.095,2.604,1.095c1.327,0,2.571-0.647,2.571-2.405v-1.145
				c-0.581,0.813-1.559,1.427-2.687,1.427c-2.09,0-3.566-1.559-3.566-4.147c0-2.571,1.46-4.163,3.566-4.163
				c1.078,0,2.04,0.531,2.687,1.41v-1.211h1.244v7.78c0,2.654-1.858,3.483-3.815,3.483
				C200.443,479.267,199.514,479.002,198.569,478.073z M204.374,473.711v-3.5c-0.432-0.697-1.393-1.294-2.389-1.294
				c-1.609,0-2.571,1.277-2.571,3.052c0,1.758,0.962,3.052,2.571,3.052C202.981,475.021,203.943,474.408,204.374,473.711z"/>
			<path d="M213.099,476.016v-5.242c0-1.41-0.713-1.858-1.791-1.858c-0.979,0-1.908,0.597-2.372,1.244v5.855h-1.244v-8.012h1.244
				v1.161c0.564-0.663,1.658-1.36,2.853-1.36c1.675,0,2.555,0.846,2.555,2.588v5.623H213.099z"/>
			<path d="M215.952,472.002c0-2.322,1.659-4.197,3.948-4.197c2.422,0,3.848,1.891,3.848,4.296v0.316h-6.486
				c0.099,1.509,1.161,2.77,2.886,2.77c0.912,0,1.841-0.365,2.472-1.012l0.597,0.813c-0.796,0.796-1.874,1.227-3.185,1.227
				C217.66,476.215,215.952,474.507,215.952,472.002z M219.883,468.834c-1.708,0-2.555,1.443-2.621,2.67h5.258
				C222.503,470.31,221.707,468.834,219.883,468.834z"/>
			<path d="M231.146,476.016v-1.194c-0.597,0.813-1.576,1.393-2.704,1.393c-2.09,0-3.566-1.592-3.566-4.196
				c0-2.555,1.46-4.213,3.566-4.213c1.078,0,2.057,0.531,2.704,1.41v-4.263h1.244v11.064H231.146z M231.146,473.843v-3.633
				c-0.448-0.697-1.41-1.294-2.405-1.294c-1.609,0-2.571,1.327-2.571,3.102c0,1.775,0.962,3.085,2.571,3.085
				C229.736,475.104,230.697,474.54,231.146,473.843z"/>
			<path d="M238.327,476.016v-11.064h1.244v4.263c0.647-0.879,1.609-1.41,2.704-1.41c2.09,0,3.566,1.659,3.566,4.213
				c0,2.604-1.476,4.196-3.566,4.196c-1.128,0-2.107-0.581-2.704-1.393v1.194H238.327z M241.96,475.104
				c1.626,0,2.588-1.31,2.588-3.085c0-1.775-0.962-3.102-2.588-3.102c-0.979,0-1.957,0.597-2.388,1.294v3.633
				C240.003,474.54,240.981,475.104,241.96,475.104z"/>
			<path d="M247.201,478.023c0.182,0.083,0.481,0.133,0.68,0.133c0.547,0,0.912-0.182,1.194-0.846l0.531-1.211l-3.351-8.095h1.344
				l2.671,6.569l2.654-6.569h1.36l-4.014,9.637c-0.481,1.161-1.294,1.609-2.356,1.625c-0.265,0-0.68-0.05-0.912-0.116
				L247.201,478.023z"/>
		</g>
	</g>
</g>
</svg>
